<svg width="21" height="24" viewBox="0 0 21 24" fill="none"
	xmlns="http://www.w3.org/2000/svg">
	<path d="M9.11428 4.62823L5.37422 2.38817L1.63412 0.14811C1.47191 0.0510439 1.28794 -3.65835e-05 1.10067 1.9658e-08C0.913413 3.66229e-05 0.729456 0.0511887 0.567283 0.148318C0.405109 0.245448 0.27043 0.385136 0.176769 0.553351C0.0831079 0.721566 0.033762 0.912386 0.0336914 1.10665V10.0668C0.0337544 10.2611 0.083095 10.4519 0.176753 10.6201C0.270411 10.7883 0.40509 10.928 0.567264 11.0252C0.729439 11.1223 0.913399 11.1735 1.10066 11.1735C1.28793 11.1735 1.47191 11.1225 1.63412 11.0254L5.37422 8.78533L9.11428 6.54531C9.27649 6.44817 9.41119 6.30845 9.50484 6.14019C9.59848 5.97193 9.64779 5.78106 9.64779 5.58677C9.64779 5.39248 9.59848 5.20161 9.50484 5.03335C9.41119 4.86509 9.27649 4.72537 9.11428 4.62823Z" fill="#7e6c8f" />
	<path d="M9.08059 17.1032L5.34053 14.8632L1.60043 12.6231C1.43821 12.526 1.25424 12.475 1.06697 12.475C0.879705 12.475 0.695747 12.5262 0.533573 12.6233C0.371398 12.7205 0.236717 12.8601 0.143059 13.0284C0.049401 13.1966 6.29699e-05 13.3874 0 13.5817V22.5418C6.29699e-05 22.7361 0.049401 22.9269 0.143059 23.0951C0.236717 23.2633 0.371398 23.403 0.533573 23.5002C0.695747 23.5973 0.879705 23.6485 1.06697 23.6485C1.25424 23.6485 1.43821 23.5975 1.60043 23.5004L5.34053 21.2604L9.08059 19.0203C9.24281 18.9232 9.37751 18.7834 9.47117 18.6152C9.56483 18.4469 9.61413 18.256 9.61413 18.0617C9.61413 17.8674 9.56483 17.6766 9.47117 17.5083C9.37751 17.34 9.24281 17.2003 9.08059 17.1032Z" fill="#7e6c8f" />
	<path d="M19.7473 10.8657L16.0073 8.62565L12.2672 6.38563C12.105 6.28856 11.921 6.23748 11.7337 6.23752C11.5465 6.23755 11.3625 6.28871 11.2003 6.38584C11.0382 6.48297 10.9035 6.62265 10.8098 6.79087C10.7162 6.95908 10.6668 7.1499 10.6667 7.34416V16.3043C10.6668 16.4986 10.7162 16.6894 10.8098 16.8576C10.9035 17.0258 11.0382 17.1655 11.2003 17.2627C11.3625 17.3598 11.5465 17.4109 11.7337 17.411C11.921 17.411 12.105 17.3599 12.2672 17.2629L16.0073 15.0228L19.7473 12.7828C19.9095 12.6856 20.0442 12.5459 20.1379 12.3777C20.2315 12.2094 20.2808 12.0185 20.2808 11.8242C20.2808 11.63 20.2315 11.4391 20.1379 11.2708C20.0442 11.1026 19.9095 10.9628 19.7473 10.8657Z" fill="#7e6c8f" />
</svg>
